<svg width="100" height="100" viewBox="0 0 100 100" fill="none" xmlns="http://www.w3.org/2000/svg">
<path d="M60.4167 56.2497C60.4167 55.0991 59.4839 54.1663 58.3333 54.1663H41.6667C40.5161 54.1663 39.5833 55.0991 39.5833 56.2497V85.4163C39.5833 86.5669 40.5161 87.4997 41.6667 87.4997H58.3333C59.4839 87.4997 60.4167 86.5669 60.4167 85.4163V56.2497Z" fill="#F98F4A"/>
<path d="M22.9167 33.333C27.519 33.333 31.25 37.064 31.25 41.6663V85.4163C31.25 86.5669 30.3173 87.4997 29.1667 87.4997H20.8333C16.231 87.4997 12.5 83.7687 12.5 79.1663V41.6663C12.5 37.064 16.231 33.333 20.8333 33.333H22.9167Z" fill="#F98F4A"/>
<path opacity="0.5" d="M87.5 20.8333C87.5 16.231 83.769 12.5 79.1667 12.5H77.0833C72.481 12.5 68.75 16.231 68.75 20.8333V85.4167C68.75 86.5673 69.6827 87.5 70.8333 87.5H79.1667C83.769 87.5 87.5 83.769 87.5 79.1667V20.8333Z" fill="#F98F4A"/>
</svg>
