<svg width="50" height="50" viewBox="0 0 50 50" fill="none" xmlns="http://www.w3.org/2000/svg">
<path fill-rule="evenodd" clip-rule="evenodd" d="M17.1298 12.4997C13.8058 12.4997 11.1112 15.1943 11.1112 18.5182C11.1112 21.8421 13.8059 24.5367 17.1298 24.5367C20.4537 24.5367 23.1483 21.8421 23.1483 18.5182C23.1483 15.1943 20.4537 12.4997 17.1298 12.4997ZM23.8869 26.1393C25.9898 24.2735 27.3149 21.5506 27.3149 18.5182C27.3149 12.8931 22.7549 8.33301 17.1298 8.33301C11.5046 8.33301 6.94458 12.8931 6.94458 18.5182C6.94458 21.5506 8.2698 24.2735 10.3727 26.1393C8.95022 26.8542 7.63731 27.7968 6.49047 28.9437C5.98187 29.4523 5.51335 29.9936 5.08704 30.5628C4.13156 31.8384 3.68163 33.2601 3.76086 34.6949C3.83887 36.1076 4.41997 37.3724 5.25071 38.3935C6.88549 40.4029 9.62657 41.6663 12.5002 41.6663H21.7594C24.6331 41.6663 27.3741 40.4029 29.0089 38.3935C29.8397 37.3724 30.4208 36.1076 30.4988 34.6949C30.578 33.2601 30.1281 31.8384 29.1726 30.5628C28.7463 29.9936 28.2778 29.4523 27.7691 28.9437C26.6223 27.7968 25.3094 26.8542 23.8869 26.1393ZM17.1298 28.7034C14.2444 28.7034 11.4771 29.8496 9.43675 31.8899C9.06885 32.2578 8.7301 32.6493 8.42192 33.0607C7.99783 33.6269 7.90089 34.0975 7.92119 34.4652C7.94271 34.8549 8.10754 35.3027 8.48281 35.7639C9.26008 36.7193 10.7714 37.4997 12.5002 37.4997L21.7594 37.4997C23.4882 37.4997 24.9995 36.7193 25.7768 35.7639C26.1521 35.3027 26.3169 34.8549 26.3384 34.4652C26.3587 34.0975 26.2618 33.6269 25.8377 33.0607C25.5295 32.6493 25.1908 32.2578 24.8229 31.8899C22.7825 29.8496 20.0153 28.7034 17.1298 28.7034ZM45.2233 19.3599C46.0369 20.1735 46.0369 21.4926 45.2233 22.3061L38.9733 28.5561C38.1597 29.3697 36.8406 29.3697 36.027 28.5561L32.902 25.4312C32.0884 24.6176 32.0884 23.2985 32.902 22.4849C33.7156 21.6713 35.0347 21.6713 35.8483 22.4849L37.5002 24.1367L42.277 19.3599C43.0906 18.5463 44.4097 18.5463 45.2233 19.3599Z" fill="#6AC03D"/>
</svg>
