<svg width="50" height="50" viewBox="0 0 50 50" fill="none" xmlns="http://www.w3.org/2000/svg">
<path fill-rule="evenodd" clip-rule="evenodd" d="M33.8602 12.5801C33.0149 12.4405 32.1496 12.483 31.3221 12.7048C30.2107 13.0025 29.0683 12.343 28.7705 11.2316C28.4727 10.1202 29.1323 8.97786 30.2436 8.68006C31.6441 8.30482 33.1084 8.23288 34.5389 8.46905C35.9693 8.70522 37.3329 9.24405 38.5384 10.0495C39.7438 10.855 40.7634 11.9085 41.529 13.1397C42.2946 14.3709 42.7886 15.7514 42.9778 17.1888C43.1671 18.6262 43.0472 20.0874 42.6264 21.4748C42.2055 22.8622 41.4933 24.1437 40.5374 25.2338C40.2558 25.5549 39.9549 25.8572 39.6368 26.1392C41.0593 26.8542 42.3723 27.7968 43.5192 28.9437C44.0278 29.4523 44.4963 29.9936 44.9226 30.5628C45.8781 31.8384 46.328 33.2601 46.2488 34.6949C46.1708 36.1076 45.5897 37.3724 44.7589 38.3935C43.1241 40.4029 40.3831 41.6663 37.5095 41.6663H35.1946C34.044 41.6663 33.1113 40.7336 33.1113 39.583C33.1113 38.4324 34.044 37.4997 35.1946 37.4997H37.5095C39.2382 37.4997 40.7496 36.7193 41.5268 35.7639C41.9021 35.3027 42.0669 34.8549 42.0884 34.4652C42.1087 34.0975 42.0118 33.6269 41.5877 33.0607C41.2795 32.6493 40.9408 32.2578 40.5729 31.8899C38.5325 29.8496 35.7653 28.7034 32.8798 28.7034C31.7292 28.7034 30.7965 27.7706 30.7965 26.62C30.7965 25.4694 31.7292 24.5367 32.8798 24.5367C33.7365 24.5367 34.5833 24.3538 35.3636 24.0002C36.144 23.6467 36.8399 23.1306 37.4047 22.4865C37.9696 21.8424 38.3904 21.0851 38.6391 20.2653C38.8878 19.4455 38.9586 18.582 38.8468 17.7326C38.735 16.8832 38.4431 16.0675 37.9907 15.34C37.5383 14.6125 36.9358 13.9899 36.2235 13.514C35.5112 13.038 34.7054 12.7196 33.8602 12.5801ZM17.1298 12.4997C13.8058 12.4997 11.1112 15.1943 11.1112 18.5182C11.1112 21.8421 13.8059 24.5367 17.1298 24.5367C20.4537 24.5367 23.1483 21.8421 23.1483 18.5182C23.1483 15.1943 20.4537 12.4997 17.1298 12.4997ZM23.8869 26.1393C25.9898 24.2735 27.3149 21.5506 27.3149 18.5182C27.3149 12.8931 22.7549 8.33301 17.1298 8.33301C11.5046 8.33301 6.94458 12.8931 6.94458 18.5182C6.94458 21.5506 8.2698 24.2735 10.3727 26.1393C8.95022 26.8542 7.63731 27.7968 6.49047 28.9437C5.98187 29.4523 5.51336 29.9936 5.08704 30.5628C4.13156 31.8384 3.68163 33.2601 3.76086 34.6949C3.83887 36.1076 4.41997 37.3724 5.25071 38.3935C6.88549 40.4029 9.62657 41.6663 12.5002 41.6663H21.7594C24.6331 41.6663 27.3741 40.4029 29.0089 38.3935C29.8397 37.3724 30.4208 36.1076 30.4988 34.6949C30.578 33.2601 30.1281 31.8384 29.1726 30.5628C28.7463 29.9936 28.2778 29.4523 27.7691 28.9437C26.6223 27.7968 25.3094 26.8542 23.8869 26.1393ZM17.1298 28.7034C14.2444 28.7034 11.4771 29.8496 9.43675 31.8899C9.06885 32.2578 8.7301 32.6493 8.42192 33.0607C7.99783 33.6269 7.90089 34.0975 7.92119 34.4652C7.94271 34.8549 8.10754 35.3027 8.48281 35.7639C9.26008 36.7193 10.7714 37.4997 12.5002 37.4997H21.7594C23.4882 37.4997 24.9995 36.7193 25.7768 35.7639C26.1521 35.3027 26.3169 34.8549 26.3384 34.4652C26.3587 34.0975 26.2618 33.6269 25.8377 33.0607C25.5295 32.6493 25.1908 32.2578 24.8229 31.8899C22.7825 29.8496 20.0153 28.7034 17.1298 28.7034Z" fill="#38B6FE"/>
</svg>
