<svg width="50" height="50" viewBox="0 0 50 50" fill="none" xmlns="http://www.w3.org/2000/svg">
<path fill-rule="evenodd" clip-rule="evenodd" d="M17.1298 12.4997C13.8058 12.4997 11.1112 15.1943 11.1112 18.5182C11.1112 21.8421 13.8059 24.5367 17.1298 24.5367C20.4537 24.5367 23.1483 21.8421 23.1483 18.5182C23.1483 15.1943 20.4537 12.4997 17.1298 12.4997ZM23.8869 26.1393C25.9898 24.2735 27.3149 21.5506 27.3149 18.5182C27.3149 12.8931 22.7549 8.33301 17.1298 8.33301C11.5046 8.33301 6.94458 12.8931 6.94458 18.5182C6.94458 21.5506 8.2698 24.2735 10.3727 26.1393C8.95022 26.8542 7.63731 27.7968 6.49047 28.9437C5.98187 29.4523 5.51335 29.9936 5.08704 30.5628C4.13156 31.8384 3.68163 33.2601 3.76086 34.6949C3.83887 36.1076 4.41997 37.3724 5.25071 38.3935C6.88549 40.4029 9.62657 41.6663 12.5002 41.6663L21.7594 41.6663C24.6331 41.6663 27.3741 40.4029 29.0089 38.3935C29.8397 37.3724 30.4208 36.1076 30.4988 34.6949C30.578 33.2601 30.1281 31.8384 29.1726 30.5628C28.7463 29.9936 28.2778 29.4523 27.7691 28.9437C26.6223 27.7968 25.3094 26.8542 23.8869 26.1393ZM17.1298 28.7034C14.2444 28.7034 11.4771 29.8496 9.43675 31.8899C9.06885 32.2578 8.7301 32.6493 8.42192 33.0607C7.99783 33.6269 7.90089 34.0975 7.92119 34.4652C7.94271 34.8549 8.10754 35.3027 8.48281 35.7639C9.26008 36.7193 10.7714 37.4997 12.5002 37.4997L21.7594 37.4997C23.4882 37.4997 24.9995 36.7193 25.7768 35.7639C26.1521 35.3027 26.3169 34.8549 26.3384 34.4652C26.3587 34.0975 26.2618 33.6269 25.8377 33.0607C25.5295 32.6493 25.1908 32.2578 24.8229 31.8899C22.7825 29.8496 20.0153 28.7034 17.1298 28.7034ZM33.3859 18.802C34.1994 17.9884 35.5185 17.9884 36.3321 18.802L38.5418 21.0117L40.7516 18.802C41.5651 17.9884 42.8842 17.9884 43.6978 18.802C44.5114 19.6156 44.5114 20.9347 43.6978 21.7483L41.4881 23.958L43.6978 26.1677C44.5114 26.9813 44.5114 28.3004 43.6978 29.114C42.8842 29.9276 41.5651 29.9276 40.7516 29.114L38.5418 26.9043L36.3321 29.114C35.5185 29.9276 34.1994 29.9276 33.3859 29.114C32.5723 28.3004 32.5723 26.9813 33.3859 26.1677L35.5956 23.958L33.3859 21.7483C32.5723 20.9347 32.5723 19.6156 33.3859 18.802Z" fill="#EF3826"/>
</svg>
