<svg width="46" height="31" viewBox="0 0 46 31" fill="none" xmlns="http://www.w3.org/2000/svg">
<path d="M41.4406 6.26483V21.6227C41.4406 22.8757 39.9525 24.0252 38.1254 24.1802L37.5414 24.2319C34.4522 24.5161 30.1009 25.3944 26.5972 26.4019C25.3729 26.7507 24.0166 26.1177 24.0166 25.2007V7.23358C24.0166 6.75566 24.4122 6.3165 25.0338 6.084C28.4809 4.80525 33.6987 3.66858 37.24 3.46191H37.3531C39.6135 3.46191 41.4406 4.71483 41.4406 6.26483Z" fill="#033E61"/>
<path d="M20.1737 6.084C16.7266 4.80525 11.5088 3.66858 7.96749 3.46191H7.83563C5.57522 3.46191 3.74805 4.71483 3.74805 6.26483V21.6227C3.74805 22.8757 5.23615 24.0252 7.06332 24.1802L7.64727 24.2319C10.7365 24.5161 15.0878 25.3944 18.5914 26.4019C19.8158 26.7507 21.1721 26.1177 21.1721 25.2007V7.23358C21.1721 6.74275 20.7954 6.3165 20.1737 6.084ZM9.41793 9.99775H13.6562C14.4285 9.99775 15.069 10.4369 15.069 10.9665C15.069 11.509 14.4285 11.9352 13.6562 11.9352H9.41793C8.64562 11.9352 8.00517 11.509 8.00517 10.9665C8.00517 10.4369 8.64562 9.99775 9.41793 9.99775ZM15.069 15.8102H9.41793C8.64562 15.8102 8.00517 15.384 8.00517 14.8415C8.00517 14.3119 8.64562 13.8727 9.41793 13.8727H15.069C15.8413 13.8727 16.4817 14.3119 16.4817 14.8415C16.4817 15.384 15.8413 15.8102 15.069 15.8102Z" fill="#033E61"/>
</svg>
