<svg width="40" height="40" viewBox="0 0 40 40" fill="none" xmlns="http://www.w3.org/2000/svg">
<path d="M17.381 25.4317L17.3724 25.4117C17.2 25.3709 17.0285 25.3261 16.8582 25.2774L16.8453 25.2731C15.2157 24.8047 13.7108 23.9795 12.4396 22.8574C11.0416 21.6241 9.96646 20.0676 9.30802 18.3235C8.64958 16.5794 8.42778 14.7007 8.66198 12.8513C8.89617 11.0018 9.57924 9.23769 10.6516 7.71277C11.724 6.18785 13.1532 4.94843 14.8145 4.10255C16.4758 3.25668 18.3187 2.83005 20.1828 2.85986C22.0468 2.88967 23.8752 3.37501 25.5086 4.27357C27.142 5.17213 28.5307 6.45663 29.5538 8.01505C30.5769 9.57348 31.2032 11.3585 31.3782 13.2145C31.4339 13.8045 30.9496 14.286 30.3567 14.286C29.7653 14.286 29.2924 13.8045 29.2239 13.216C29.035 11.5921 28.4208 10.0469 27.4433 8.73648C26.4658 7.42609 25.1597 6.397 23.6569 5.75322C22.1542 5.10945 20.5082 4.87382 18.8852 5.07015C17.2622 5.26647 15.7198 5.8878 14.4139 6.87133C13.1081 7.85485 12.085 9.1657 11.4481 10.6714C10.8113 12.177 10.5832 13.8242 10.787 15.4462C10.9908 17.0683 11.6193 18.6078 12.6088 19.9091C13.5983 21.2105 14.9139 22.2275 16.4224 22.8574L16.4796 22.8817C16.7653 22.9988 17.0586 23.1022 17.3596 23.1917C17.6124 22.5807 18.0694 22.0763 18.6525 21.7646C19.2357 21.4528 19.9089 21.353 20.5574 21.4821C21.2059 21.6112 21.7896 21.9612 22.2089 22.4725C22.6282 22.9838 22.8571 23.6247 22.8567 24.286C22.8574 24.9426 22.6318 25.5794 22.218 26.0892C21.8042 26.5991 21.2274 26.9508 20.5847 27.0853C19.942 27.2198 19.2726 27.1288 18.6891 26.8276C18.1056 26.5264 17.6437 26.0335 17.381 25.4317ZM15.9724 27.2488C13.4346 26.4596 11.1844 24.9425 9.50101 22.886C8.45774 23.0082 7.49568 23.5092 6.79753 24.294C6.09937 25.0788 5.71374 26.0927 5.71387 27.1431V28.1645C5.71387 33.476 11.7282 37.1431 19.9996 37.1431C28.271 37.1431 34.2853 33.2745 34.2853 28.1645V27.1431C34.2853 26.0065 33.8338 24.9164 33.03 24.1127C32.2263 23.3089 31.1362 22.8574 29.9996 22.8574H24.7924C25.1294 23.986 25.0571 25.1974 24.5884 26.2779C24.1196 27.3584 23.2843 28.2388 22.23 28.7638C21.1756 29.2888 19.9697 29.4246 18.8249 29.1475C17.6801 28.8703 16.6699 28.1979 15.9724 27.2488ZM27.1424 14.286C27.1424 12.126 26.1853 10.1903 24.6696 8.88025C23.9091 8.2242 23.0188 7.73591 22.0568 7.44725C21.0948 7.15859 20.0827 7.07606 19.0866 7.20504C18.0906 7.33402 17.1329 7.67162 16.2762 8.19578C15.4194 8.71995 14.6828 9.41891 14.1145 10.247C13.5462 11.0752 13.1589 12.0138 12.978 13.0018C12.797 13.9897 12.8264 15.0047 13.0643 15.9805C13.3022 16.9563 13.7432 17.871 14.3585 18.6648C14.9738 19.4586 15.7496 20.1137 16.6353 20.5874C17.5557 19.7501 18.7553 19.286 19.9996 19.286C21.2444 19.2857 22.4445 19.7497 23.3653 20.5874C24.5066 19.9777 25.4609 19.0694 26.1261 17.9595C26.7914 16.8497 27.1427 15.5799 27.1424 14.286Z" fill="#004A76"/>
</svg>
