<svg width="481" height="358" viewBox="0 0 481 358" fill="none" xmlns="http://www.w3.org/2000/svg">
<path d="M245.826 182.876C245.826 182.876 262.466 72.5273 362.736 97.8178C327.654 94.4984 270.179 153.14 245.826 182.876Z" fill="url(#paint0_linear_193_524)"/>
<path d="M246.069 182.867C266.428 147.764 315.783 89.0729 361.556 98.6208C341.548 94.4473 292.404 128.107 246.069 182.867Z" fill="#6AC03D" fill-opacity="0.34"/>
<path d="M234.87 182.876C234.87 182.876 218.231 72.5273 117.96 97.8178C153.042 94.4984 210.518 153.14 234.87 182.876Z" fill="url(#paint1_linear_193_524)"/>
<path d="M234.628 182.867C214.268 147.764 164.914 89.0729 119.14 98.6208C139.149 94.4473 188.292 128.107 234.628 182.867Z" fill="#6AC03D" fill-opacity="0.34"/>
<path d="M224.48 0H242.67C245.665 0.219159 255.56 2.35486 253.455 9.12667C251.337 15.9382 250.829 27.2849 251.817 38.7838C259.426 38.6383 275.176 38.4463 281.899 38.7911C288.737 39.1418 291.761 45.512 292.419 48.6533V66.186C292.419 74.0757 285.406 76.6326 281.899 76.9248H266.443C266.241 76.859 266.042 76.7837 265.844 76.6993C250.426 70.8048 219.301 51.889 215.494 21.2584C214.106 14.8298 213.96 1.57794 224.48 0Z" fill="#438222"/>
<path d="M281.687 38.6128H251.795C251.988 63.2683 265.702 76.5159 266.483 76.8746L282.032 77.2256C289.772 77.2256 292.288 71.3596 292.404 68.3174V48.4415C292.404 41.1402 285.142 38.8468 281.687 38.6128Z" fill="#025F96"/>
<path d="M292.097 68.297C290.672 75.9948 283.072 76.5081 282.36 76.8746C260.23 69.8541 258.124 48.1435 259.318 38.6128H281.408C289.104 39.7858 291.74 45.4553 292.097 48.1435V68.297Z" fill="#38B6FE" fill-opacity="0.32"/>
<path d="M224.304 -7.62939e-06C195.169 9.12666 243.26 70.5562 266.076 76.8746C243.295 52.0382 236.581 13.0532 242.558 -7.62939e-06H224.304Z" fill="url(#paint2_linear_193_524)" fill-opacity="0.15"/>
<path d="M244.153 115.838H225.963C222.968 115.619 213.072 113.484 215.178 106.712C217.295 99.9002 217.804 88.5535 216.815 77.0546C209.207 77.2 193.457 77.392 186.734 77.0472C179.896 76.6966 176.871 70.3264 176.214 67.1851V49.6524C176.214 41.7627 183.227 39.2058 186.734 38.9136H202.19C202.392 38.9794 202.591 39.0546 202.789 39.1391C218.207 45.0336 249.331 63.9494 253.139 94.58C254.527 101.009 254.673 114.26 244.153 115.838Z" fill="#025F96"/>
<path d="M186.946 77.2256H216.837C216.645 52.5701 202.931 39.3225 202.149 38.9638L186.601 38.6128C178.861 38.6128 176.344 44.4788 176.229 47.521V67.3969C176.229 74.6982 183.491 76.9916 186.946 77.2256Z" fill="#438222"/>
<path d="M176.214 47.5118C177.535 39.1221 184.601 38.6201 188.841 38.6201C212.868 38.0734 210.41 67.7343 209.207 77.2255H186.973C179.226 76.0574 176.573 70.4113 176.214 67.7343V47.5118Z" fill="url(#paint3_linear_193_524)" fill-opacity="0.15"/>
<g filter="url(#filter0_d_193_524)">
<path d="M244.328 115.838C266.779 109.52 250.28 56.8661 202.556 38.9637C225.338 63.8001 232.052 102.785 226.075 115.838H244.328Z" fill="#38B6FE" fill-opacity="0.28" shape-rendering="crispEdges"/>
</g>
<path d="M480.682 137.778C296.545 120.612 237.453 158.409 254.973 357.871C320.404 334.563 336.762 255.957 336.762 219.567C444.316 230.8 477.523 169.721 480.682 137.778Z" fill="#1177B3"/>
<path d="M480.554 137.953C479.384 168.916 448.611 230.273 336.634 219.934C365.067 203.244 426.496 208.856 480.554 137.953Z" fill="#004A76"/>
<path d="M286.788 172.705C257.653 202.191 246.774 257.632 254.845 357.695C323.294 298.372 289.603 178.321 286.788 172.705Z" fill="#004A76" fill-opacity="0.33"/>
<path d="M0 137.076C184.137 119.91 243.229 157.708 225.71 357.169C160.278 333.861 143.921 255.255 143.92 218.865C36.3662 230.098 3.15919 169.02 0 137.076Z" fill="#1177B3"/>
<path d="M0.127869 137.251C1.29796 168.214 32.0712 229.571 144.048 219.232C115.615 202.542 54.1858 208.154 0.127869 137.251Z" fill="#004A76"/>
<path d="M193.894 172.003C223.029 201.489 233.908 256.93 225.838 356.993C157.388 297.67 191.08 177.619 193.894 172.003Z" fill="#004A76" fill-opacity="0.33"/>
<defs>
<filter id="filter0_d_193_524" x="198.556" y="38.9637" width="59.6707" height="84.8746" filterUnits="userSpaceOnUse" color-interpolation-filters="sRGB">
<feFlood flood-opacity="0" result="BackgroundImageFix"/>
<feColorMatrix in="SourceAlpha" type="matrix" values="0 0 0 0 0 0 0 0 0 0 0 0 0 0 0 0 0 0 127 0" result="hardAlpha"/>
<feOffset dy="4"/>
<feGaussianBlur stdDeviation="2"/>
<feComposite in2="hardAlpha" operator="out"/>
<feColorMatrix type="matrix" values="0 0 0 0 0 0 0 0 0 0 0 0 0 0 0 0 0 0 0.1 0"/>
<feBlend mode="normal" in2="BackgroundImageFix" result="effect1_dropShadow_193_524"/>
<feBlend mode="normal" in="SourceGraphic" in2="effect1_dropShadow_193_524" result="shape"/>
</filter>
<linearGradient id="paint0_linear_193_524" x1="315.769" y1="87.4863" x2="292.701" y2="193.113" gradientUnits="userSpaceOnUse">
<stop offset="0.0657633" stop-color="#4D9428"/>
<stop offset="0.82682" stop-color="#438222"/>
</linearGradient>
<linearGradient id="paint1_linear_193_524" x1="164.928" y1="87.4863" x2="187.996" y2="193.113" gradientUnits="userSpaceOnUse">
<stop offset="0.0657633" stop-color="#4D9428"/>
<stop offset="0.82682" stop-color="#438222"/>
</linearGradient>
<linearGradient id="paint2_linear_193_524" x1="234.607" y1="69.3276" x2="234.607" y2="-0.877571" gradientUnits="userSpaceOnUse">
<stop stop-color="#446433"/>
<stop offset="0.750949" stop-color="#74E03C"/>
</linearGradient>
<linearGradient id="paint3_linear_193_524" x1="192.843" y1="39.1221" x2="192.843" y2="77.2255" gradientUnits="userSpaceOnUse">
<stop offset="0.397531" stop-color="#8BFF4D"/>
<stop offset="1" stop-color="#446433"/>
</linearGradient>
</defs>
</svg>
