<svg width="959" height="138" viewBox="0 0 959 138" fill="none" xmlns="http://www.w3.org/2000/svg">
<rect x="1" width="958" height="137" rx="10" fill="#004A76"/>
<path d="M14.5 73.5L0.5 63.5C0.5 82 0.6 120.8 1 128C1.4 135.2 7.16667 137 10 137C320.5 137.333 943.1 137.8 949.5 137C955.9 136.2 958.5 130.667 959 128V73C938.5 80.6667 894.3 96 881.5 96C865.5 96 834.5 103.5 809 96C783.5 88.5 748 113 716.5 103.5C685 94 652.5 113 622.5 113C592.5 113 524.5 99 510 86C495.5 73 447.5 86 423.5 73.5C399.5 61 373.5 86 355 86C336.5 86 285 92 249.5 86C214 80 131.5 82 106 73.5C85.6 66.7 36.5 70.6667 14.5 73.5Z" fill="#38B6FE" fill-opacity="0.08"/>
</svg>
