<svg width="50" height="50" viewBox="0 0 50 50" fill="none" xmlns="http://www.w3.org/2000/svg">
<path fill-rule="evenodd" clip-rule="evenodd" d="M6.97395 23.1128C8.93118 20.8972 11.9016 18.359 15.7146 16.6314C13.7165 18.8471 12.5 21.7815 12.5 25C12.5 28.2185 13.7165 31.1529 15.7146 33.3686C11.9016 31.641 8.93118 29.1028 6.97395 26.8872C6.00871 25.7946 6.00871 24.2054 6.97395 23.1128ZM5.41257 21.7335C8.96248 17.7149 15.7097 12.5966 24.8144 12.5014C24.8762 12.5004 24.938 12.5 25 12.5H25.0303H25.0726C34.3079 12.5 41.1492 17.6771 44.7326 21.7335C46.3938 23.6141 46.3938 26.3859 44.7326 28.2665C41.1492 32.3229 34.3079 37.5 25.0726 37.5H25.0303H25C24.938 37.5 24.8762 37.4996 24.8144 37.4986C15.7097 37.4034 8.96248 32.2851 5.41258 28.2665C3.7514 26.3859 3.75138 23.6141 5.41257 21.7335ZM25.0296 14.5833C24.9664 14.5835 24.9032 14.5839 24.8402 14.5846C19.161 14.6699 14.5834 19.3004 14.5834 25C14.5834 30.6996 19.161 35.3301 24.8402 35.4154C24.9032 35.4161 24.9664 35.4165 25.0296 35.4167C30.769 35.4007 35.4167 30.7431 35.4167 25C35.4167 19.2569 30.769 14.5993 25.0296 14.5833ZM37.5 25C37.5 28.2718 36.243 31.2499 34.1856 33.4779C38.1165 31.7494 41.1723 29.15 43.1712 26.8872C44.1365 25.7946 44.1365 24.2054 43.1712 23.1128C41.1723 20.85 38.1165 18.2506 34.1856 16.5221C36.243 18.7501 37.5 21.7282 37.5 25ZM25.0725 31.25C28.5243 31.25 31.3225 28.4518 31.3225 25C31.3225 24.0351 31.1039 23.1214 30.7135 22.3054C30.3364 22.683 29.8151 22.9167 29.2393 22.9167C28.0887 22.9167 27.156 21.984 27.156 20.8333C27.156 20.2575 27.3896 19.7363 27.7672 19.3592C26.9513 18.9686 26.0374 18.75 25.0725 18.75C21.6207 18.75 18.8225 21.5482 18.8225 25C18.8225 28.4518 21.6207 31.25 25.0725 31.25Z" fill="#025F96"/>
</svg>
