<svg width="1440" height="121" viewBox="0 0 1440 121" fill="none" xmlns="http://www.w3.org/2000/svg">
<path d="M342.909 57.5483L372.132 28.0686C372.341 27.863 372.588 27.7603 372.88 27.7603C373.173 27.7603 373.419 27.863 373.623 28.0686L402.852 57.5483C403.056 57.7539 403.163 58.0061 403.163 58.3005C403.163 58.5948 403.056 58.8424 402.852 59.0527L373.623 88.5277C373.419 88.7379 373.173 88.8407 372.88 88.8407C372.588 88.8407 372.341 88.7379 372.132 88.5277L342.909 59.0527C342.7 58.8424 342.597 58.5948 342.597 58.3005C342.597 58.0061 342.7 57.7539 342.909 57.5483Z" fill="#002B5B" fill-opacity="0.5"/>
<mask id="mask0_193_723" style="mask-type:luminance" maskUnits="userSpaceOnUse" x="260" y="85" width="114" height="69">
<path d="M260.417 85.7529H373.391V154H260.417V85.7529Z" fill="white"/>
</mask>
<g mask="url(#mask0_193_723)">
<path d="M372.109 143.31L361.82 153.691C361.611 153.897 361.364 154 361.072 154H272.425C272.137 154 271.891 153.897 271.682 153.691L261.397 143.32C261.193 143.109 261.091 142.857 261.091 142.568C261.091 142.273 261.193 142.021 261.397 141.815L293.91 109.019L298.202 104.692L316.008 86.7336C316.217 86.5281 316.463 86.4253 316.756 86.4253C317.044 86.4253 317.294 86.5281 317.499 86.7336L337.074 106.472L341.366 110.803L351.382 120.904L372.123 141.825C372.318 142.03 372.416 142.283 372.416 142.568C372.411 142.857 372.309 143.105 372.109 143.31Z" fill="#159895" fill-opacity="0.5"/>
</g>
<mask id="mask1_193_723" style="mask-type:luminance" maskUnits="userSpaceOnUse" x="350" y="48" width="85" height="106">
<path d="M350.796 48.6763H434.807V154H350.796V48.6763Z" fill="white"/>
</mask>
<g mask="url(#mask1_193_723)">
<path d="M434.5 61.3929V152.925C434.5 153.224 434.398 153.476 434.189 153.686C433.98 153.892 433.729 153.999 433.436 153.999H384.633C384.345 153.999 384.094 153.897 383.889 153.691L372.857 142.567L352.116 121.646C351.911 121.441 351.809 121.189 351.809 120.894C351.809 120.605 351.911 120.352 352.116 120.142L421.907 49.7505C422.111 49.5449 422.362 49.4421 422.65 49.4421C422.943 49.4421 423.189 49.5449 423.398 49.7505L434.198 60.6454C434.398 60.8556 434.5 61.1032 434.5 61.3929Z" fill="#1A5F7A" fill-opacity="0.5"/>
</g>
<mask id="mask2_193_723" style="mask-type:luminance" maskUnits="userSpaceOnUse" x="254" y="0" width="126" height="127">
<path d="M254.471 0H379.337V126.417H254.471V0Z" fill="white"/>
</mask>
<g mask="url(#mask2_193_723)">
<path d="M315.952 0.415834L254.801 62.0849C254.597 62.2952 254.494 62.5475 254.494 62.8371C254.494 63.1314 254.597 63.3837 254.801 63.5893L315.952 125.263C316.156 125.469 316.407 125.571 316.695 125.571C316.988 125.571 317.234 125.469 317.443 125.263L351.855 90.5555L378.598 63.5846C378.803 63.3744 378.905 63.1221 378.905 62.8324C378.905 62.5381 378.803 62.2858 378.598 62.0803L317.448 0.40649C317.239 0.200926 316.992 0.0981445 316.7 0.0981445C316.407 0.0981445 316.156 0.205597 315.952 0.415834ZM335.244 98.6613L317.443 116.62C317.234 116.826 316.988 116.928 316.695 116.928C316.407 116.928 316.156 116.826 315.952 116.62L263.376 63.5986C263.172 63.3884 263.07 63.1408 263.07 62.8465C263.07 62.5521 263.172 62.3045 263.376 62.0943L315.952 9.07287C316.156 8.8673 316.407 8.76452 316.695 8.76452C316.988 8.76452 317.234 8.8673 317.443 9.07287L363.083 55.1098L370.014 62.099C370.218 62.3045 370.321 62.5568 370.321 62.8511C370.321 63.1408 370.218 63.3931 370.014 63.6033L335.244 98.6613Z" fill="#025F96" fill-opacity="0.5"/>
</g>
<mask id="mask3_193_723" style="mask-type:luminance" maskUnits="userSpaceOnUse" x="97" y="69" width="97" height="85">
<path d="M97.4971 69.0085H193.822V154H97.4971V69.0085Z" fill="white"/>
</mask>
<g mask="url(#mask3_193_723)">
<path d="M192.823 117.503C193.028 117.713 193.13 117.961 193.13 118.255C193.13 118.55 193.028 118.797 192.823 119.007L186.515 125.371L182.223 129.697L174.265 137.723L169.973 142.054L158.439 153.687C158.234 153.888 157.984 153.991 157.696 153.991H133.15C132.862 153.991 132.616 153.888 132.407 153.687L98.0267 119.007C97.8223 118.797 97.7201 118.545 97.7201 118.255C97.7201 117.961 97.8223 117.709 98.0267 117.503L121.829 93.4942L126.117 89.168L144.684 70.4524C144.889 70.2468 145.139 70.144 145.432 70.144C145.72 70.144 145.971 70.2468 146.175 70.4524L164.668 89.0979L168.961 93.4288L192.823 117.503Z" fill="#1A5F7A" fill-opacity="0.5"/>
</g>
<path d="M96.4938 46.1166L123.19 19.1877C123.395 18.9822 123.646 18.8794 123.934 18.8794C124.226 18.8794 124.477 18.9822 124.682 19.1877L151.378 46.1166C151.582 46.3221 151.689 46.5744 151.689 46.8688C151.689 47.1631 151.582 47.4107 151.378 47.6209L124.682 74.5451C124.477 74.7507 124.226 74.8581 123.934 74.8581C123.646 74.8581 123.395 74.7507 123.19 74.5451L96.4938 47.6209C96.2894 47.4107 96.1826 47.1631 96.1826 46.8688C96.1826 46.5744 96.2894 46.3221 96.4938 46.1166Z" fill="#025F96" fill-opacity="0.5"/>
<mask id="mask4_193_723" style="mask-type:luminance" maskUnits="userSpaceOnUse" x="48" y="82" width="142" height="72">
<path d="M48.74 82.1646H189.065V154H48.74V82.1646Z" fill="white"/>
</mask>
<g mask="url(#mask4_193_723)">
<path d="M174.265 137.723L126.117 89.168L119.646 82.6367C119.442 82.4312 119.191 82.3284 118.903 82.3284C118.61 82.3284 118.364 82.4312 118.155 82.6367L49.1999 152.183C48.8747 152.519 48.805 152.907 48.9815 153.337C49.158 153.771 49.4786 153.991 49.9431 154H55.5453C55.8334 154 56.0796 153.897 56.2886 153.692L118.15 91.2984C118.359 91.0929 118.605 90.9901 118.898 90.9901C119.186 90.9901 119.437 91.0929 119.641 91.2984L121.825 93.5036L169.969 142.059L181.503 153.692C181.712 153.893 181.958 153.995 182.246 153.995H187.848C188.313 153.986 188.633 153.766 188.81 153.337C188.986 152.902 188.912 152.519 188.592 152.183L174.265 137.723Z" fill="#C3E9FF" fill-opacity="0.5"/>
</g>
<path d="M254.388 80.5391L277.851 104.207C278.06 104.413 278.162 104.665 278.162 104.959C278.162 105.253 278.06 105.501 277.851 105.711L254.388 129.379C254.183 129.585 253.932 129.688 253.64 129.688C253.352 129.688 253.101 129.585 252.897 129.379L229.428 105.711C229.224 105.501 229.122 105.253 229.122 104.959C229.122 104.665 229.224 104.413 229.428 104.207L252.897 80.5391C253.101 80.3289 253.352 80.2261 253.64 80.2261C253.932 80.2261 254.183 80.3289 254.388 80.5391Z" fill="#C3E9FF" fill-opacity="0.5"/>
<mask id="mask5_193_723" style="mask-type:luminance" maskUnits="userSpaceOnUse" x="192" y="115" width="74" height="39">
<path d="M192.633 115.653H265.174V154H192.633V115.653Z" fill="white"/>
</mask>
<g mask="url(#mask5_193_723)">
<path d="M264.765 153.692C264.556 153.897 264.31 154 264.022 154H194.333C194.045 154 193.799 153.897 193.59 153.692C193.386 153.486 193.283 153.234 193.283 152.939C193.283 152.65 193.386 152.397 193.59 152.187L228.43 117.05C228.639 116.844 228.885 116.741 229.178 116.741C229.466 116.741 229.717 116.844 229.921 117.05L264.765 152.187C264.97 152.397 265.072 152.65 265.072 152.939C265.072 153.234 264.97 153.486 264.765 153.692Z" fill="#1A5F7A" fill-opacity="0.5"/>
</g>
<path d="M207.6 59.1365L226.154 40.4209C226.358 40.2153 226.609 40.1125 226.897 40.1125C227.189 40.1125 227.44 40.2153 227.645 40.4209L246.198 59.1365C246.407 59.3421 246.509 59.5944 246.509 59.8887C246.509 60.183 246.407 60.4306 246.198 60.6409L227.645 79.3518C227.44 79.5621 227.189 79.6649 226.897 79.6649C226.609 79.6649 226.358 79.5621 226.154 79.3518L207.6 60.6409C207.391 60.4306 207.289 60.183 207.289 59.8887C207.289 59.5944 207.391 59.3421 207.6 59.1365Z" fill="#1A5F7A" fill-opacity="0.5"/>
<path d="M191.448 63.5842C191.244 63.3787 190.993 63.2759 190.705 63.2759C190.412 63.2759 190.166 63.3787 189.957 63.5842L164.659 89.0975L154.058 99.7868C153.854 99.997 153.752 100.249 153.752 100.539C153.752 100.833 153.854 101.086 154.058 101.291L189.957 137.498C190.162 137.704 190.412 137.807 190.7 137.807C190.993 137.807 191.239 137.704 191.448 137.498L227.343 101.291C227.547 101.086 227.649 100.833 227.649 100.539C227.649 100.249 227.547 99.997 227.343 99.7868L191.448 63.5842ZM186.515 125.365L162.643 101.291C162.443 101.081 162.341 100.833 162.341 100.539C162.341 100.245 162.443 99.997 162.643 99.7868L168.951 93.4283L189.957 72.2366C190.166 72.031 190.412 71.9282 190.705 71.9282C190.993 71.9282 191.244 72.031 191.448 72.2366L218.763 99.7821C218.967 99.9924 219.069 100.245 219.069 100.534C219.069 100.829 218.967 101.081 218.763 101.286L191.448 128.837C191.244 129.042 190.993 129.145 190.705 129.145C190.412 129.145 190.166 129.042 189.957 128.837L186.515 125.365Z" fill="#C3E9FF" fill-opacity="0.5"/>
<mask id="mask6_193_723" style="mask-type:luminance" maskUnits="userSpaceOnUse" x="-21" y="10" width="130" height="141">
<path d="M-21 10.4045H108.2V150.337H-21V10.4045Z" fill="white"/>
</mask>
<g mask="url(#mask6_193_723)">
<path d="M106.955 80.8754L38.9105 149.501C38.7015 149.707 38.4553 149.809 38.1626 149.809C37.8746 149.809 37.6238 149.707 37.4194 149.501L-20.3915 91.1956C-20.5959 90.9854 -20.6981 90.7331 -20.6981 90.4435V69.8124C-20.6981 69.5227 -20.6005 69.2751 -20.4054 69.0648L37.4054 10.7595C37.6145 10.554 37.8607 10.4512 38.1533 10.4512C38.4413 10.4512 38.6922 10.554 38.8966 10.7595L106.941 79.3851C107.141 79.5906 107.243 79.8383 107.248 80.1279C107.252 80.4129 107.155 80.6652 106.955 80.8754Z" fill="#025F96" fill-opacity="0.5"/>
</g>
<path d="M525.898 57.5483L496.674 28.0686C496.465 27.863 496.219 27.7603 495.926 27.7603C495.634 27.7603 495.388 27.863 495.183 28.0686L465.955 57.5483C465.751 57.7539 465.644 58.0061 465.644 58.3005C465.644 58.5948 465.751 58.8424 465.955 59.0527L495.183 88.5277C495.388 88.7379 495.634 88.8407 495.926 88.8407C496.219 88.8407 496.465 88.7379 496.674 88.5277L525.898 59.0527C526.107 58.8424 526.209 58.5948 526.209 58.3005C526.209 58.0061 526.107 57.7539 525.898 57.5483Z" fill="#002B5B" fill-opacity="0.5"/>
<mask id="mask7_193_723" style="mask-type:luminance" maskUnits="userSpaceOnUse" x="495" y="85" width="114" height="69">
<path d="M608.389 85.7529H495.416V154H608.389V85.7529Z" fill="white"/>
</mask>
<g mask="url(#mask7_193_723)">
<path d="M496.698 143.31L506.987 153.691C507.196 153.897 507.442 154 507.735 154H596.381C596.669 154 596.915 153.897 597.124 153.691L607.409 143.32C607.614 143.109 607.716 142.857 607.716 142.568C607.716 142.273 607.614 142.021 607.409 141.815L574.897 109.019L570.604 104.692L552.799 86.7336C552.59 86.5281 552.344 86.4253 552.051 86.4253C551.763 86.4253 551.512 86.5281 551.308 86.7336L531.732 106.472L527.44 110.803L517.425 120.904L496.684 141.825C496.489 142.03 496.391 142.283 496.391 142.568C496.396 142.857 496.498 143.105 496.698 143.31Z" fill="#159895" fill-opacity="0.5"/>
</g>
<mask id="mask8_193_723" style="mask-type:luminance" maskUnits="userSpaceOnUse" x="434" y="48" width="85" height="106">
<path d="M518.01 48.6763H434V154H518.01V48.6763Z" fill="white"/>
</mask>
<g mask="url(#mask8_193_723)">
<path d="M434.307 61.3929V152.925C434.307 153.224 434.409 153.476 434.618 153.686C434.827 153.892 435.078 153.999 435.37 153.999H484.174C484.462 153.999 484.713 153.897 484.917 153.691L495.95 142.567L516.691 121.646C516.895 121.441 516.998 121.189 516.998 120.894C516.998 120.605 516.895 120.352 516.691 120.142L446.9 49.7505C446.696 49.5449 446.445 49.4421 446.157 49.4421C445.864 49.4421 445.618 49.5449 445.409 49.7505L434.608 60.6454C434.409 60.8556 434.307 61.1032 434.307 61.3929Z" fill="#1A5F7A" fill-opacity="0.5"/>
</g>
<mask id="mask9_193_723" style="mask-type:luminance" maskUnits="userSpaceOnUse" x="489" y="0" width="126" height="127">
<path d="M614.335 0H489.47V126.417H614.335V0Z" fill="white"/>
</mask>
<g mask="url(#mask9_193_723)">
<path d="M552.855 0.415834L614.006 62.0849C614.21 62.2952 614.312 62.5475 614.312 62.8371C614.312 63.1314 614.21 63.3837 614.006 63.5893L552.855 125.263C552.65 125.469 552.4 125.571 552.112 125.571C551.819 125.571 551.573 125.469 551.364 125.263L516.951 90.5555L490.208 63.5846C490.004 63.3744 489.902 63.1221 489.902 62.8324C489.902 62.5381 490.004 62.2858 490.208 62.0803L551.359 0.40649C551.568 0.200926 551.814 0.0981445 552.107 0.0981445C552.4 0.0981445 552.65 0.205597 552.855 0.415834ZM533.563 98.6613L551.364 116.62C551.573 116.826 551.819 116.928 552.112 116.928C552.4 116.928 552.65 116.826 552.855 116.62L605.43 63.5986C605.635 63.3884 605.737 63.1408 605.737 62.8465C605.737 62.5521 605.635 62.3045 605.43 62.0943L552.855 9.07287C552.65 8.8673 552.4 8.76452 552.112 8.76452C551.819 8.76452 551.573 8.8673 551.364 9.07287L505.724 55.1098L498.793 62.099C498.588 62.3045 498.486 62.5568 498.486 62.8511C498.486 63.1408 498.588 63.3931 498.793 63.6033L533.563 98.6613Z" fill="#025F96" fill-opacity="0.5"/>
</g>
<mask id="mask10_193_723" style="mask-type:luminance" maskUnits="userSpaceOnUse" x="674" y="69" width="98" height="85">
<path d="M771.31 69.0085H674.984V154H771.31V69.0085Z" fill="white"/>
</mask>
<g mask="url(#mask10_193_723)">
<path d="M675.983 117.503C675.779 117.713 675.677 117.961 675.677 118.255C675.677 118.55 675.779 118.797 675.983 119.007L682.292 125.371L686.584 129.697L694.541 137.723L698.834 142.054L710.368 153.687C710.572 153.888 710.823 153.991 711.111 153.991H735.657C735.945 153.991 736.191 153.888 736.4 153.687L770.78 119.007C770.984 118.797 771.087 118.545 771.087 118.255C771.087 117.961 770.984 117.709 770.78 117.503L746.977 93.4942L742.69 89.168L724.123 70.4524C723.918 70.2468 723.667 70.144 723.375 70.144C723.087 70.144 722.836 70.2468 722.631 70.4524L704.138 89.0979L699.846 93.4288L675.983 117.503Z" fill="#1A5F7A" fill-opacity="0.5"/>
</g>
<path d="M772.313 46.1166L745.616 19.1877C745.412 18.9822 745.161 18.8794 744.873 18.8794C744.58 18.8794 744.33 18.9822 744.125 19.1877L717.429 46.1166C717.224 46.3221 717.117 46.5744 717.117 46.8688C717.117 47.1631 717.224 47.4107 717.429 47.6209L744.125 74.5451C744.33 74.7507 744.58 74.8581 744.873 74.8581C745.161 74.8581 745.412 74.7507 745.616 74.5451L772.313 47.6209C772.517 47.4107 772.624 47.1631 772.624 46.8688C772.624 46.5744 772.517 46.3221 772.313 46.1166Z" fill="#025F96" fill-opacity="0.5"/>
<mask id="mask11_193_723" style="mask-type:luminance" maskUnits="userSpaceOnUse" x="679" y="82" width="142" height="72">
<path d="M820.067 82.1646H679.741V154H820.067V82.1646Z" fill="white"/>
</mask>
<g mask="url(#mask11_193_723)">
<path d="M694.541 137.723L742.69 89.168L749.161 82.6367C749.365 82.4312 749.616 82.3284 749.904 82.3284C750.197 82.3284 750.443 82.4312 750.652 82.6367L819.607 152.183C819.932 152.519 820.002 152.907 819.825 153.337C819.649 153.771 819.328 153.991 818.864 154H813.261C812.973 154 812.727 153.897 812.518 153.692L750.657 91.2984C750.448 91.0929 750.201 90.9901 749.909 90.9901C749.621 90.9901 749.37 91.0929 749.165 91.2984L746.982 93.5036L698.838 142.059L687.304 153.692C687.095 153.893 686.849 153.995 686.561 153.995H680.958C680.494 153.986 680.173 153.766 679.997 153.337C679.82 152.902 679.895 152.519 680.215 152.183L694.541 137.723Z" fill="#C3E9FF" fill-opacity="0.5"/>
</g>
<path d="M614.419 80.5391L590.956 104.207C590.747 104.413 590.644 104.665 590.644 104.959C590.644 105.253 590.747 105.501 590.956 105.711L614.419 129.379C614.623 129.585 614.874 129.688 615.167 129.688C615.455 129.688 615.706 129.585 615.91 129.379L639.378 105.711C639.583 105.501 639.685 105.253 639.685 104.959C639.685 104.665 639.583 104.413 639.378 104.207L615.91 80.5391C615.706 80.3289 615.455 80.2261 615.167 80.2261C614.874 80.2261 614.623 80.3289 614.419 80.5391Z" fill="#C3E9FF" fill-opacity="0.5"/>
<mask id="mask12_193_723" style="mask-type:luminance" maskUnits="userSpaceOnUse" x="603" y="115" width="74" height="39">
<path d="M676.174 115.653H603.633V154H676.174V115.653Z" fill="white"/>
</mask>
<g mask="url(#mask12_193_723)">
<path d="M604.041 153.692C604.25 153.897 604.497 154 604.785 154H674.473C674.761 154 675.008 153.897 675.217 153.692C675.421 153.486 675.523 153.234 675.523 152.939C675.523 152.65 675.421 152.397 675.217 152.187L640.377 117.05C640.168 116.844 639.922 116.741 639.629 116.741C639.341 116.741 639.09 116.844 638.886 117.05L604.041 152.187C603.837 152.397 603.735 152.65 603.735 152.939C603.735 153.234 603.837 153.486 604.041 153.692Z" fill="#1A5F7A" fill-opacity="0.5"/>
</g>
<path d="M661.206 59.1365L642.653 40.4209C642.449 40.2153 642.198 40.1125 641.91 40.1125C641.617 40.1125 641.366 40.2153 641.162 40.4209L622.609 59.1365C622.4 59.3421 622.297 59.5944 622.297 59.8887C622.297 60.183 622.4 60.4306 622.609 60.6409L641.162 79.3518C641.366 79.5621 641.617 79.6649 641.91 79.6649C642.198 79.6649 642.449 79.5621 642.653 79.3518L661.206 60.6409C661.415 60.4306 661.518 60.183 661.518 59.8887C661.518 59.5944 661.415 59.3421 661.206 59.1365Z" fill="#1A5F7A" fill-opacity="0.5"/>
<path d="M677.358 63.5842C677.563 63.3787 677.813 63.2759 678.101 63.2759C678.394 63.2759 678.64 63.3787 678.849 63.5842L704.148 89.0975L714.748 99.7868C714.953 99.997 715.055 100.249 715.055 100.539C715.055 100.833 714.953 101.086 714.748 101.291L678.849 137.498C678.645 137.704 678.394 137.807 678.106 137.807C677.813 137.807 677.567 137.704 677.358 137.498L641.464 101.291C641.26 101.086 641.157 100.833 641.157 100.539C641.157 100.249 641.26 99.997 641.464 99.7868L677.358 63.5842ZM682.292 125.365L706.164 101.291C706.364 101.081 706.466 100.833 706.466 100.539C706.466 100.245 706.364 99.997 706.164 99.7868L699.855 93.4283L678.849 72.2366C678.64 72.031 678.394 71.9282 678.101 71.9282C677.813 71.9282 677.563 72.031 677.358 72.2366L650.044 99.7821C649.839 99.9924 649.737 100.245 649.737 100.534C649.737 100.829 649.839 101.081 650.044 101.286L677.358 128.837C677.563 129.042 677.813 129.145 678.101 129.145C678.394 129.145 678.64 129.042 678.849 128.837L682.292 125.365Z" fill="#C3E9FF" fill-opacity="0.5"/>
<mask id="mask13_193_723" style="mask-type:luminance" maskUnits="userSpaceOnUse" x="760" y="10" width="130" height="141">
<path d="M889.807 10.4045H760.607V150.337H889.807V10.4045Z" fill="white"/>
</mask>
<g mask="url(#mask13_193_723)">
<path d="M761.852 80.8754L829.896 149.501C830.105 149.707 830.351 149.809 830.644 149.809C830.932 149.809 831.183 149.707 831.387 149.501L889.198 91.1956C889.403 90.9854 889.505 90.7331 889.505 90.4435V69.8124C889.505 69.5227 889.407 69.2751 889.212 69.0648L831.401 10.7595C831.192 10.554 830.946 10.4512 830.653 10.4512C830.365 10.4512 830.114 10.554 829.91 10.7595L761.866 79.3851C761.666 79.5906 761.564 79.8383 761.559 80.1279C761.554 80.4129 761.652 80.6652 761.852 80.8754Z" fill="#025F96" fill-opacity="0.5"/>
</g>
<path d="M1252.91 57.5483L1282.13 28.0686C1282.34 27.863 1282.59 27.7603 1282.88 27.7603C1283.17 27.7603 1283.42 27.863 1283.62 28.0686L1312.85 57.5483C1313.06 57.7539 1313.16 58.0061 1313.16 58.3005C1313.16 58.5948 1313.06 58.8424 1312.85 59.0527L1283.62 88.5277C1283.42 88.7379 1283.17 88.8407 1282.88 88.8407C1282.59 88.8407 1282.34 88.7379 1282.13 88.5277L1252.91 59.0527C1252.7 58.8424 1252.6 58.5948 1252.6 58.3005C1252.6 58.0061 1252.7 57.7539 1252.91 57.5483Z" fill="#002B5B" fill-opacity="0.5"/>
<mask id="mask14_193_723" style="mask-type:luminance" maskUnits="userSpaceOnUse" x="1170" y="85" width="114" height="69">
<path d="M1170.42 85.7529H1283.39V154H1170.42V85.7529Z" fill="white"/>
</mask>
<g mask="url(#mask14_193_723)">
<path d="M1282.11 143.31L1271.82 153.691C1271.61 153.897 1271.36 154 1271.07 154H1182.43C1182.14 154 1181.89 153.897 1181.68 153.691L1171.4 143.32C1171.19 143.109 1171.09 142.857 1171.09 142.568C1171.09 142.273 1171.19 142.021 1171.4 141.815L1203.91 109.019L1208.2 104.692L1226.01 86.7336C1226.22 86.5281 1226.46 86.4253 1226.76 86.4253C1227.04 86.4253 1227.29 86.5281 1227.5 86.7336L1247.07 106.472L1251.37 110.803L1261.38 120.904L1282.12 141.825C1282.32 142.03 1282.42 142.283 1282.42 142.568C1282.41 142.857 1282.31 143.105 1282.11 143.31Z" fill="#159895" fill-opacity="0.5"/>
</g>
<mask id="mask15_193_723" style="mask-type:luminance" maskUnits="userSpaceOnUse" x="1260" y="48" width="85" height="106">
<path d="M1260.8 48.6763H1344.81V154H1260.8V48.6763Z" fill="white"/>
</mask>
<g mask="url(#mask15_193_723)">
<path d="M1344.5 61.3929V152.925C1344.5 153.224 1344.4 153.476 1344.19 153.686C1343.98 153.892 1343.73 153.999 1343.44 153.999H1294.63C1294.34 153.999 1294.09 153.897 1293.89 153.691L1282.86 142.567L1262.12 121.646C1261.91 121.441 1261.81 121.189 1261.81 120.894C1261.81 120.605 1261.91 120.352 1262.12 120.142L1331.91 49.7505C1332.11 49.5449 1332.36 49.4421 1332.65 49.4421C1332.94 49.4421 1333.19 49.5449 1333.4 49.7505L1344.2 60.6454C1344.4 60.8556 1344.5 61.1032 1344.5 61.3929Z" fill="#1A5F7A" fill-opacity="0.5"/>
</g>
<mask id="mask16_193_723" style="mask-type:luminance" maskUnits="userSpaceOnUse" x="1164" y="0" width="126" height="127">
<path d="M1164.47 0H1289.34V126.417H1164.47V0Z" fill="white"/>
</mask>
<g mask="url(#mask16_193_723)">
<path d="M1225.95 0.415834L1164.8 62.0849C1164.6 62.2952 1164.49 62.5475 1164.49 62.8371C1164.49 63.1314 1164.6 63.3837 1164.8 63.5893L1225.95 125.263C1226.16 125.469 1226.41 125.571 1226.7 125.571C1226.99 125.571 1227.23 125.469 1227.44 125.263L1261.86 90.5555L1288.6 63.5846C1288.8 63.3744 1288.91 63.1221 1288.91 62.8324C1288.91 62.5381 1288.8 62.2858 1288.6 62.0803L1227.45 0.40649C1227.24 0.200926 1226.99 0.0981445 1226.7 0.0981445C1226.41 0.0981445 1226.16 0.205597 1225.95 0.415834ZM1245.24 98.6613L1227.44 116.62C1227.23 116.826 1226.99 116.928 1226.7 116.928C1226.41 116.928 1226.16 116.826 1225.95 116.62L1173.38 63.5986C1173.17 63.3884 1173.07 63.1408 1173.07 62.8465C1173.07 62.5521 1173.17 62.3045 1173.38 62.0943L1225.95 9.07287C1226.16 8.8673 1226.41 8.76452 1226.7 8.76452C1226.99 8.76452 1227.23 8.8673 1227.44 9.07287L1273.08 55.1098L1280.01 62.099C1280.22 62.3045 1280.32 62.5568 1280.32 62.8511C1280.32 63.1408 1280.22 63.3931 1280.01 63.6033L1245.24 98.6613Z" fill="#025F96" fill-opacity="0.5"/>
</g>
<mask id="mask17_193_723" style="mask-type:luminance" maskUnits="userSpaceOnUse" x="1007" y="69" width="97" height="85">
<path d="M1007.5 69.0085H1103.82V154H1007.5V69.0085Z" fill="white"/>
</mask>
<g mask="url(#mask17_193_723)">
<path d="M1102.82 117.503C1103.03 117.713 1103.13 117.961 1103.13 118.255C1103.13 118.55 1103.03 118.797 1102.82 119.007L1096.52 125.371L1092.22 129.697L1084.27 137.723L1079.97 142.054L1068.44 153.687C1068.23 153.888 1067.98 153.991 1067.7 153.991H1043.15C1042.86 153.991 1042.62 153.888 1042.41 153.687L1008.03 119.007C1007.82 118.797 1007.72 118.545 1007.72 118.255C1007.72 117.961 1007.82 117.709 1008.03 117.503L1031.83 93.4942L1036.12 89.168L1054.68 70.4524C1054.89 70.2468 1055.14 70.144 1055.43 70.144C1055.72 70.144 1055.97 70.2468 1056.18 70.4524L1074.67 89.0979L1078.96 93.4288L1102.82 117.503Z" fill="#1A5F7A" fill-opacity="0.5"/>
</g>
<path d="M1006.49 46.1166L1033.19 19.1877C1033.39 18.9822 1033.65 18.8794 1033.93 18.8794C1034.23 18.8794 1034.48 18.9822 1034.68 19.1877L1061.38 46.1166C1061.58 46.3221 1061.69 46.5744 1061.69 46.8688C1061.69 47.1631 1061.58 47.4107 1061.38 47.6209L1034.68 74.5451C1034.48 74.7507 1034.23 74.8581 1033.93 74.8581C1033.65 74.8581 1033.39 74.7507 1033.19 74.5451L1006.49 47.6209C1006.29 47.4107 1006.18 47.1631 1006.18 46.8688C1006.18 46.5744 1006.29 46.3221 1006.49 46.1166Z" fill="#025F96" fill-opacity="0.5"/>
<mask id="mask18_193_723" style="mask-type:luminance" maskUnits="userSpaceOnUse" x="958" y="82" width="142" height="72">
<path d="M958.74 82.1646H1099.07V154H958.74V82.1646Z" fill="white"/>
</mask>
<g mask="url(#mask18_193_723)">
<path d="M1084.27 137.723L1036.12 89.168L1029.65 82.6367C1029.44 82.4312 1029.19 82.3284 1028.9 82.3284C1028.61 82.3284 1028.36 82.4312 1028.15 82.6367L959.2 152.183C958.875 152.519 958.805 152.907 958.981 153.337C959.158 153.771 959.479 153.991 959.943 154H965.545C965.833 154 966.08 153.897 966.289 153.692L1028.15 91.2984C1028.36 91.0929 1028.61 90.9901 1028.9 90.9901C1029.19 90.9901 1029.44 91.0929 1029.64 91.2984L1031.82 93.5036L1079.97 142.059L1091.5 153.692C1091.71 153.893 1091.96 153.995 1092.25 153.995H1097.85C1098.31 153.986 1098.63 153.766 1098.81 153.337C1098.99 152.902 1098.91 152.519 1098.59 152.183L1084.27 137.723Z" fill="#C3E9FF" fill-opacity="0.5"/>
</g>
<path d="M1164.39 80.5391L1187.85 104.207C1188.06 104.413 1188.16 104.665 1188.16 104.959C1188.16 105.253 1188.06 105.501 1187.85 105.711L1164.39 129.379C1164.18 129.585 1163.93 129.688 1163.64 129.688C1163.35 129.688 1163.1 129.585 1162.9 129.379L1139.43 105.711C1139.22 105.501 1139.12 105.253 1139.12 104.959C1139.12 104.665 1139.22 104.413 1139.43 104.207L1162.9 80.5391C1163.1 80.3289 1163.35 80.2261 1163.64 80.2261C1163.93 80.2261 1164.18 80.3289 1164.39 80.5391Z" fill="#C3E9FF" fill-opacity="0.5"/>
<mask id="mask19_193_723" style="mask-type:luminance" maskUnits="userSpaceOnUse" x="1102" y="115" width="74" height="39">
<path d="M1102.63 115.653H1175.17V154H1102.63V115.653Z" fill="white"/>
</mask>
<g mask="url(#mask19_193_723)">
<path d="M1174.77 153.692C1174.56 153.897 1174.31 154 1174.02 154H1104.33C1104.05 154 1103.8 153.897 1103.59 153.692C1103.39 153.486 1103.28 153.234 1103.28 152.939C1103.28 152.65 1103.39 152.397 1103.59 152.187L1138.43 117.05C1138.64 116.844 1138.88 116.741 1139.18 116.741C1139.47 116.741 1139.72 116.844 1139.92 117.05L1174.77 152.187C1174.97 152.397 1175.07 152.65 1175.07 152.939C1175.07 153.234 1174.97 153.486 1174.77 153.692Z" fill="#1A5F7A" fill-opacity="0.5"/>
</g>
<path d="M1117.6 59.1365L1136.15 40.4209C1136.36 40.2153 1136.61 40.1125 1136.9 40.1125C1137.19 40.1125 1137.44 40.2153 1137.64 40.4209L1156.2 59.1365C1156.41 59.3421 1156.51 59.5944 1156.51 59.8887C1156.51 60.183 1156.41 60.4306 1156.2 60.6409L1137.64 79.3518C1137.44 79.5621 1137.19 79.6649 1136.9 79.6649C1136.61 79.6649 1136.36 79.5621 1136.15 79.3518L1117.6 60.6409C1117.39 60.4306 1117.29 60.183 1117.29 59.8887C1117.29 59.5944 1117.39 59.3421 1117.6 59.1365Z" fill="#1A5F7A" fill-opacity="0.5"/>
<path d="M1101.45 63.5842C1101.24 63.3787 1100.99 63.2759 1100.71 63.2759C1100.41 63.2759 1100.17 63.3787 1099.96 63.5842L1074.66 89.0975L1064.06 99.7868C1063.85 99.997 1063.75 100.249 1063.75 100.539C1063.75 100.833 1063.85 101.086 1064.06 101.291L1099.96 137.498C1100.16 137.704 1100.41 137.807 1100.7 137.807C1100.99 137.807 1101.24 137.704 1101.45 137.498L1137.34 101.291C1137.55 101.086 1137.65 100.833 1137.65 100.539C1137.65 100.249 1137.55 99.997 1137.34 99.7868L1101.45 63.5842ZM1096.52 125.365L1072.64 101.291C1072.44 101.081 1072.34 100.833 1072.34 100.539C1072.34 100.245 1072.44 99.997 1072.64 99.7868L1078.95 93.4283L1099.96 72.2366C1100.17 72.031 1100.41 71.9282 1100.71 71.9282C1100.99 71.9282 1101.24 72.031 1101.45 72.2366L1128.76 99.7821C1128.97 99.9924 1129.07 100.245 1129.07 100.534C1129.07 100.829 1128.97 101.081 1128.76 101.286L1101.45 128.837C1101.24 129.042 1100.99 129.145 1100.71 129.145C1100.41 129.145 1100.17 129.042 1099.96 128.837L1096.52 125.365Z" fill="#C3E9FF" fill-opacity="0.5"/>
<mask id="mask20_193_723" style="mask-type:luminance" maskUnits="userSpaceOnUse" x="889" y="10" width="130" height="141">
<path d="M889 10.4045H1018.2V150.337H889V10.4045Z" fill="white"/>
</mask>
<g mask="url(#mask20_193_723)">
<path d="M1016.95 80.8754L948.911 149.501C948.701 149.707 948.455 149.809 948.163 149.809C947.875 149.809 947.624 149.707 947.419 149.501L889.609 91.1956C889.404 90.9854 889.302 90.7331 889.302 90.4435V69.8124C889.302 69.5227 889.399 69.2751 889.595 69.0648L947.405 10.7595C947.614 10.554 947.861 10.4512 948.153 10.4512C948.441 10.4512 948.692 10.554 948.897 10.7595L1016.94 79.3851C1017.14 79.5906 1017.24 79.8383 1017.25 80.1279C1017.25 80.4129 1017.15 80.6652 1016.95 80.8754Z" fill="#025F96" fill-opacity="0.5"/>
</g>
<path d="M1435.9 57.5483L1406.67 28.0686C1406.47 27.863 1406.22 27.7603 1405.93 27.7603C1405.63 27.7603 1405.39 27.863 1405.18 28.0686L1375.95 57.5483C1375.75 57.7539 1375.64 58.0061 1375.64 58.3005C1375.64 58.5948 1375.75 58.8424 1375.95 59.0527L1405.18 88.5277C1405.39 88.7379 1405.63 88.8407 1405.93 88.8407C1406.22 88.8407 1406.47 88.7379 1406.67 88.5277L1435.9 59.0527C1436.11 58.8424 1436.21 58.5948 1436.21 58.3005C1436.21 58.0061 1436.11 57.7539 1435.9 57.5483Z" fill="#002B5B" fill-opacity="0.5"/>
<mask id="mask21_193_723" style="mask-type:luminance" maskUnits="userSpaceOnUse" x="1405" y="85" width="114" height="69">
<path d="M1518.39 85.7529H1405.42V154H1518.39V85.7529Z" fill="white"/>
</mask>
<g mask="url(#mask21_193_723)">
<path d="M1406.7 143.31L1416.99 153.691C1417.2 153.897 1417.44 154 1417.73 154H1506.38C1506.67 154 1506.92 153.897 1507.12 153.691L1517.41 143.32C1517.61 143.109 1517.72 142.857 1517.72 142.568C1517.72 142.273 1517.61 142.021 1517.41 141.815L1484.9 109.019L1480.6 104.692L1462.8 86.7336C1462.59 86.5281 1462.34 86.4253 1462.05 86.4253C1461.76 86.4253 1461.51 86.5281 1461.31 86.7336L1441.73 106.472L1437.44 110.803L1427.42 120.904L1406.68 141.825C1406.49 142.03 1406.39 142.283 1406.39 142.568C1406.4 142.857 1406.5 143.105 1406.7 143.31Z" fill="#159895" fill-opacity="0.5"/>
</g>
<mask id="mask22_193_723" style="mask-type:luminance" maskUnits="userSpaceOnUse" x="1344" y="48" width="85" height="106">
<path d="M1428.01 48.6763H1344V154H1428.01V48.6763Z" fill="white"/>
</mask>
<g mask="url(#mask22_193_723)">
<path d="M1344.31 61.3929V152.925C1344.31 153.224 1344.41 153.476 1344.62 153.686C1344.83 153.892 1345.08 153.999 1345.37 153.999H1394.17C1394.46 153.999 1394.71 153.897 1394.92 153.691L1405.95 142.567L1426.69 121.646C1426.9 121.441 1427 121.189 1427 120.894C1427 120.605 1426.9 120.352 1426.69 120.142L1356.9 49.7505C1356.7 49.5449 1356.44 49.4421 1356.16 49.4421C1355.86 49.4421 1355.62 49.5449 1355.41 49.7505L1344.61 60.6454C1344.41 60.8556 1344.31 61.1032 1344.31 61.3929Z" fill="#1A5F7A" fill-opacity="0.5"/>
</g>
<mask id="mask23_193_723" style="mask-type:luminance" maskUnits="userSpaceOnUse" x="1399" y="0" width="126" height="127">
<path d="M1524.34 0H1399.47V126.417H1524.34V0Z" fill="white"/>
</mask>
<g mask="url(#mask23_193_723)">
<path d="M1462.85 0.415834L1524.01 62.0849C1524.21 62.2952 1524.31 62.5475 1524.31 62.8371C1524.31 63.1314 1524.21 63.3837 1524.01 63.5893L1462.85 125.263C1462.65 125.469 1462.4 125.571 1462.11 125.571C1461.82 125.571 1461.57 125.469 1461.36 125.263L1426.95 90.5555L1400.21 63.5846C1400 63.3744 1399.9 63.1221 1399.9 62.8324C1399.9 62.5381 1400 62.2858 1400.21 62.0803L1461.36 0.40649C1461.57 0.200926 1461.81 0.0981445 1462.11 0.0981445C1462.4 0.0981445 1462.65 0.205597 1462.85 0.415834ZM1443.56 98.6613L1461.36 116.62C1461.57 116.826 1461.82 116.928 1462.11 116.928C1462.4 116.928 1462.65 116.826 1462.85 116.62L1515.43 63.5986C1515.63 63.3884 1515.74 63.1408 1515.74 62.8465C1515.74 62.5521 1515.63 62.3045 1515.43 62.0943L1462.85 9.07287C1462.65 8.8673 1462.4 8.76452 1462.11 8.76452C1461.82 8.76452 1461.57 8.8673 1461.36 9.07287L1415.72 55.1098L1408.79 62.099C1408.59 62.3045 1408.49 62.5568 1408.49 62.8511C1408.49 63.1408 1408.59 63.3931 1408.79 63.6033L1443.56 98.6613Z" fill="#025F96" fill-opacity="0.5"/>
</g>
</svg>
