<svg width="489" height="460" viewBox="0 0 489 460" fill="none" xmlns="http://www.w3.org/2000/svg">
<g filter="url(#filter0_d_374_3750)">
<path d="M249.826 182.876C249.826 182.876 266.466 72.5273 366.736 97.8178C331.654 94.4984 274.179 153.14 249.826 182.876Z" fill="url(#paint0_linear_374_3750)"/>
<path d="M250.069 182.867C270.428 147.764 319.783 89.0729 365.556 98.6208C345.548 94.4473 296.404 128.107 250.069 182.867Z" fill="#6AC03D" fill-opacity="0.34"/>
<path d="M238.87 182.876C238.87 182.876 222.231 72.5273 121.96 97.8178C157.042 94.4984 214.518 153.14 238.87 182.876Z" fill="url(#paint1_linear_374_3750)"/>
<path d="M238.628 182.867C218.268 147.764 168.914 89.0729 123.14 98.6208C143.149 94.4473 192.292 128.107 238.628 182.867Z" fill="#6AC03D" fill-opacity="0.34"/>
<path d="M228.48 0H246.67C249.665 0.219159 259.56 2.35486 257.455 9.12667C255.337 15.9382 254.829 27.2849 255.817 38.7838C263.426 38.6383 279.176 38.4463 285.899 38.7911C292.737 39.1418 295.761 45.512 296.419 48.6533V66.186C296.419 74.0757 289.406 76.6326 285.899 76.9248H270.443C270.241 76.859 270.042 76.7837 269.844 76.6993C254.426 70.8048 223.301 51.889 219.494 21.2584C218.106 14.8298 217.96 1.57794 228.48 0Z" fill="#438222"/>
<path d="M285.687 38.6128H255.795C255.988 63.2683 269.702 76.5159 270.483 76.8746L286.032 77.2256C293.772 77.2256 296.288 71.3596 296.404 68.3174V48.4415C296.404 41.1402 289.142 38.8468 285.687 38.6128Z" fill="#025F96"/>
<path d="M296.097 68.297C294.672 75.9948 287.072 76.5081 286.36 76.8746C264.23 69.8541 262.124 48.1435 263.318 38.6128H285.408C293.104 39.7858 295.74 45.4553 296.097 48.1435V68.297Z" fill="#38B6FE" fill-opacity="0.32"/>
<path d="M228.304 -7.62939e-06C199.169 9.12666 247.26 70.5562 270.076 76.8746C247.295 52.0382 240.581 13.0532 246.558 -7.62939e-06H228.304Z" fill="url(#paint2_linear_374_3750)" fill-opacity="0.15"/>
<path d="M248.153 115.838H229.963C226.968 115.619 217.072 113.484 219.178 106.712C221.295 99.9002 221.804 88.5535 220.815 77.0546C213.207 77.2 197.457 77.392 190.734 77.0472C183.896 76.6966 180.871 70.3264 180.214 67.1851V49.6524C180.214 41.7627 187.227 39.2058 190.734 38.9136H206.19C206.392 38.9794 206.591 39.0546 206.789 39.1391C222.207 45.0336 253.331 63.9494 257.139 94.58C258.527 101.009 258.673 114.26 248.153 115.838Z" fill="#025F96"/>
<path d="M190.946 77.2256H220.837C220.645 52.5701 206.931 39.3225 206.149 38.9638L190.601 38.6128C182.861 38.6128 180.344 44.4788 180.229 47.521V67.3969C180.229 74.6982 187.491 76.9916 190.946 77.2256Z" fill="#438222"/>
<path d="M180.214 47.5118C181.535 39.1221 188.601 38.6201 192.841 38.6201C216.868 38.0734 214.41 67.7343 213.207 77.2255H190.973C183.226 76.0574 180.573 70.4113 180.214 67.7343V47.5118Z" fill="url(#paint3_linear_374_3750)" fill-opacity="0.15"/>
<g filter="url(#filter1_d_374_3750)">
<path d="M248.328 115.838C270.779 109.52 254.28 56.8661 206.556 38.9637C229.338 63.8001 236.052 102.785 230.075 115.838H248.328Z" fill="#38B6FE" fill-opacity="0.28" shape-rendering="crispEdges"/>
</g>
<path d="M484.682 137.778C300.545 120.612 241.453 158.409 258.973 357.871C324.404 334.563 340.762 255.957 340.762 219.567C448.316 230.8 481.523 169.721 484.682 137.778Z" fill="#1177B3"/>
<path d="M484.554 137.953C483.384 168.916 452.611 230.273 340.634 219.934C369.067 203.244 430.496 208.856 484.554 137.953Z" fill="#004A76"/>
<path d="M290.788 172.705C261.653 202.191 250.774 257.632 258.845 357.695C327.294 298.372 293.603 178.321 290.788 172.705Z" fill="#004A76" fill-opacity="0.33"/>
<path d="M4 137.076C188.137 119.91 247.229 157.708 229.71 357.169C164.278 333.861 147.921 255.255 147.92 218.865C40.3662 230.098 7.15919 169.02 4 137.076Z" fill="#1177B3"/>
<path d="M4.12787 137.251C5.29796 168.214 36.0712 229.571 148.048 219.232C119.615 202.542 58.1858 208.154 4.12787 137.251Z" fill="#004A76"/>
<path d="M197.894 172.003C227.029 201.489 237.908 256.93 229.838 356.993C161.388 297.67 195.08 177.619 197.894 172.003Z" fill="#004A76" fill-opacity="0.33"/>
</g>
<path d="M98.3628 433V418.195L93.0078 428.975H89.8578L84.5028 418.195V433H78.7628V408.15H84.9928L91.4328 421.135L97.9078 408.15H104.103V433H98.3628ZM119.76 433.21C117.893 433.21 116.202 432.86 114.685 432.16C113.192 431.437 111.897 430.48 110.8 429.29C109.727 428.077 108.898 426.723 108.315 425.23C107.732 423.713 107.44 422.15 107.44 420.54C107.44 418.883 107.743 417.308 108.35 415.815C108.98 414.322 109.843 412.992 110.94 411.825C112.06 410.635 113.378 409.702 114.895 409.025C116.412 408.348 118.068 408.01 119.865 408.01C121.708 408.01 123.377 408.372 124.87 409.095C126.387 409.795 127.682 410.752 128.755 411.965C129.852 413.178 130.692 414.543 131.275 416.06C131.858 417.553 132.15 419.082 132.15 420.645C132.15 422.302 131.847 423.877 131.24 425.37C130.633 426.863 129.77 428.205 128.65 429.395C127.53 430.562 126.212 431.495 124.695 432.195C123.202 432.872 121.557 433.21 119.76 433.21ZM113.285 420.61C113.285 421.567 113.425 422.5 113.705 423.41C113.985 424.297 114.393 425.09 114.93 425.79C115.49 426.49 116.178 427.05 116.995 427.47C117.812 427.89 118.745 428.1 119.795 428.1C120.892 428.1 121.848 427.89 122.665 427.47C123.482 427.027 124.158 426.443 124.695 425.72C125.232 424.997 125.628 424.192 125.885 423.305C126.165 422.395 126.305 421.473 126.305 420.54C126.305 419.583 126.165 418.662 125.885 417.775C125.605 416.888 125.185 416.095 124.625 415.395C124.065 414.672 123.377 414.112 122.56 413.715C121.743 413.318 120.822 413.12 119.795 413.12C118.698 413.12 117.742 413.33 116.925 413.75C116.132 414.17 115.455 414.742 114.895 415.465C114.358 416.165 113.95 416.97 113.67 417.88C113.413 418.767 113.285 419.677 113.285 420.61ZM133.735 427.155C133.968 427.318 134.458 427.552 135.205 427.855C135.975 428.135 136.873 428.275 137.9 428.275C138.717 428.275 139.382 428.135 139.895 427.855C140.432 427.575 140.828 427.155 141.085 426.595C141.365 426.012 141.552 425.265 141.645 424.355C141.738 423.422 141.785 422.302 141.785 420.995V408.15H147.525V420.785C147.525 422.652 147.42 424.355 147.21 425.895C147 427.435 146.568 428.777 145.915 429.92C145.285 431.04 144.328 431.903 143.045 432.51C141.762 433.093 140.047 433.385 137.9 433.385C136.803 433.385 135.812 433.257 134.925 433C134.038 432.743 133.222 432.358 132.475 431.845L133.735 427.155ZM162.895 433.21C161.028 433.21 159.337 432.86 157.82 432.16C156.327 431.437 155.032 430.48 153.935 429.29C152.862 428.077 152.033 426.723 151.45 425.23C150.867 423.713 150.575 422.15 150.575 420.54C150.575 418.883 150.878 417.308 151.485 415.815C152.115 414.322 152.978 412.992 154.075 411.825C155.195 410.635 156.513 409.702 158.03 409.025C159.547 408.348 161.203 408.01 163 408.01C164.843 408.01 166.512 408.372 168.005 409.095C169.522 409.795 170.817 410.752 171.89 411.965C172.987 413.178 173.827 414.543 174.41 416.06C174.993 417.553 175.285 419.082 175.285 420.645C175.285 422.302 174.982 423.877 174.375 425.37C173.768 426.863 172.905 428.205 171.785 429.395C170.665 430.562 169.347 431.495 167.83 432.195C166.337 432.872 164.692 433.21 162.895 433.21ZM156.42 420.61C156.42 421.567 156.56 422.5 156.84 423.41C157.12 424.297 157.528 425.09 158.065 425.79C158.625 426.49 159.313 427.05 160.13 427.47C160.947 427.89 161.88 428.1 162.93 428.1C164.027 428.1 164.983 427.89 165.8 427.47C166.617 427.027 167.293 426.443 167.83 425.72C168.367 424.997 168.763 424.192 169.02 423.305C169.3 422.395 169.44 421.473 169.44 420.54C169.44 419.583 169.3 418.662 169.02 417.775C168.74 416.888 168.32 416.095 167.76 415.395C167.2 414.672 166.512 414.112 165.695 413.715C164.878 413.318 163.957 413.12 162.93 413.12C161.833 413.12 160.877 413.33 160.06 413.75C159.267 414.17 158.59 414.742 158.03 415.465C157.493 416.165 157.085 416.97 156.805 417.88C156.548 418.767 156.42 419.677 156.42 420.61ZM178.602 433V408.15H184.342V418.86L193.442 408.15H199.882L190.572 419.245L200.512 433H193.932L186.932 423.025L184.342 425.685V433H178.602ZM219.822 427.96V433H202.357V408.15H219.507V413.19H208.097V418.02H217.897V422.675H208.097V427.96H219.822ZM223.309 433V408.15H234.509C235.675 408.15 236.749 408.395 237.729 408.885C238.732 409.352 239.595 409.993 240.319 410.81C241.042 411.603 241.602 412.502 241.999 413.505C242.419 414.508 242.629 415.523 242.629 416.55C242.629 417.577 242.465 418.557 242.139 419.49C241.812 420.4 241.345 421.228 240.739 421.975C240.132 422.698 239.409 423.293 238.569 423.76L244.029 433H237.694L232.934 424.985H229.049V433H223.309ZM229.049 419.98H234.299C234.765 419.98 235.174 419.84 235.524 419.56C235.897 419.257 236.2 418.848 236.434 418.335C236.667 417.822 236.784 417.227 236.784 416.55C236.784 415.873 236.644 415.29 236.364 414.8C236.107 414.287 235.78 413.89 235.384 413.61C234.987 413.33 234.567 413.19 234.124 413.19H229.049V419.98ZM265.383 413.19H257.823V433H252.083V413.19H244.488V408.15H265.383V413.19ZM278.593 433.21C276.726 433.21 275.035 432.86 273.518 432.16C272.025 431.437 270.73 430.48 269.633 429.29C268.56 428.077 267.731 426.723 267.148 425.23C266.565 423.713 266.273 422.15 266.273 420.54C266.273 418.883 266.576 417.308 267.183 415.815C267.813 414.322 268.676 412.992 269.773 411.825C270.893 410.635 272.211 409.702 273.728 409.025C275.245 408.348 276.901 408.01 278.698 408.01C280.541 408.01 282.21 408.372 283.703 409.095C285.22 409.795 286.515 410.752 287.588 411.965C288.685 413.178 289.525 414.543 290.108 416.06C290.691 417.553 290.983 419.082 290.983 420.645C290.983 422.302 290.68 423.877 290.073 425.37C289.466 426.863 288.603 428.205 287.483 429.395C286.363 430.562 285.045 431.495 283.528 432.195C282.035 432.872 280.39 433.21 278.593 433.21ZM272.118 420.61C272.118 421.567 272.258 422.5 272.538 423.41C272.818 424.297 273.226 425.09 273.763 425.79C274.323 426.49 275.011 427.05 275.828 427.47C276.645 427.89 277.578 428.1 278.628 428.1C279.725 428.1 280.681 427.89 281.498 427.47C282.315 427.027 282.991 426.443 283.528 425.72C284.065 424.997 284.461 424.192 284.718 423.305C284.998 422.395 285.138 421.473 285.138 420.54C285.138 419.583 284.998 418.662 284.718 417.775C284.438 416.888 284.018 416.095 283.458 415.395C282.898 414.672 282.21 414.112 281.393 413.715C280.576 413.318 279.655 413.12 278.628 413.12C277.531 413.12 276.575 413.33 275.758 413.75C274.965 414.17 274.288 414.742 273.728 415.465C273.191 416.165 272.783 416.97 272.503 417.88C272.246 418.767 272.118 419.677 272.118 420.61ZM317.379 415.43C317.309 415.313 317.064 415.138 316.644 414.905C316.224 414.648 315.699 414.38 315.069 414.1C314.439 413.82 313.751 413.575 313.004 413.365C312.257 413.155 311.511 413.05 310.764 413.05C309.784 413.05 309.026 413.225 308.489 413.575C307.952 413.902 307.684 414.415 307.684 415.115C307.684 415.675 307.882 416.118 308.279 416.445C308.699 416.772 309.294 417.063 310.064 417.32C310.834 417.553 311.779 417.833 312.899 418.16C314.486 418.58 315.862 419.093 317.029 419.7C318.196 420.283 319.082 421.042 319.689 421.975C320.319 422.908 320.634 424.145 320.634 425.685C320.634 427.085 320.377 428.275 319.864 429.255C319.351 430.212 318.651 430.993 317.764 431.6C316.901 432.183 315.909 432.615 314.789 432.895C313.669 433.152 312.514 433.28 311.324 433.28C310.111 433.28 308.862 433.163 307.579 432.93C306.319 432.673 305.106 432.323 303.939 431.88C302.772 431.413 301.699 430.853 300.719 430.2L303.239 425.195C303.332 425.312 303.636 425.533 304.149 425.86C304.662 426.163 305.292 426.49 306.039 426.84C306.809 427.167 307.661 427.458 308.594 427.715C309.527 427.972 310.472 428.1 311.429 428.1C312.456 428.1 313.214 427.937 313.704 427.61C314.217 427.283 314.474 426.828 314.474 426.245C314.474 425.615 314.206 425.125 313.669 424.775C313.156 424.425 312.444 424.11 311.534 423.83C310.647 423.55 309.621 423.235 308.454 422.885C306.937 422.418 305.677 421.893 304.674 421.31C303.694 420.727 302.959 420.015 302.469 419.175C302.002 418.335 301.769 417.285 301.769 416.025C301.769 414.275 302.177 412.805 302.994 411.615C303.834 410.402 304.954 409.492 306.354 408.885C307.754 408.255 309.282 407.94 310.939 407.94C312.106 407.94 313.226 408.08 314.299 408.36C315.396 408.64 316.411 408.99 317.344 409.41C318.301 409.83 319.152 410.25 319.899 410.67L317.379 415.43ZM341.467 427.96V433H324.002V408.15H341.152V413.19H329.742V418.02H339.542V422.675H329.742V427.96H341.467ZM366.339 408.15V433H360.599V422.815H350.694V433H344.954V408.15H350.694V417.775H360.599V408.15H366.339ZM377.367 408.15H383.562L392.102 433H386.222L384.297 427.435H376.562L374.672 433H368.792L377.367 408.15ZM383.352 423.48L380.447 413.925L377.472 423.48H383.352ZM411.194 413.19H403.634V433H397.894V413.19H390.299V408.15H411.194V413.19Z" fill="#025F96"/>
<path d="M300.705 455.126C300.089 455.126 299.562 454.972 299.123 454.664C298.685 454.356 298.391 453.941 298.241 453.418H298.381V455H297.135V445.13H298.409V449.722H298.255C298.405 449.218 298.699 448.817 299.137 448.518C299.576 448.21 300.099 448.056 300.705 448.056C301.312 448.056 301.839 448.201 302.287 448.49C302.745 448.77 303.095 449.176 303.337 449.708C303.589 450.231 303.715 450.856 303.715 451.584C303.715 452.303 303.589 452.933 303.337 453.474C303.085 454.006 302.735 454.417 302.287 454.706C301.839 454.986 301.312 455.126 300.705 455.126ZM300.411 454.118C301.027 454.118 301.517 453.903 301.881 453.474C302.245 453.035 302.427 452.405 302.427 451.584C302.427 450.763 302.245 450.137 301.881 449.708C301.517 449.279 301.027 449.064 300.411 449.064C299.795 449.064 299.305 449.279 298.941 449.708C298.577 450.137 298.395 450.763 298.395 451.584C298.395 452.405 298.577 453.035 298.941 453.474C299.305 453.903 299.795 454.118 300.411 454.118ZM305.999 457.52L307.301 454.594V455.126L304.319 448.182H305.691L308.057 454.006H307.665L310.073 448.182H311.389L307.329 457.52H305.999ZM318.94 455.126C318.109 455.126 317.489 454.911 317.078 454.482C316.667 454.043 316.462 453.418 316.462 452.606V449.162H315.132V448.182H316.462V446.11H317.736V448.182H319.878V449.162H317.736V452.494C317.736 453.007 317.843 453.395 318.058 453.656C318.273 453.917 318.627 454.048 319.122 454.048C319.271 454.048 319.416 454.034 319.556 454.006C319.705 453.969 319.845 453.931 319.976 453.894L320.186 454.846C320.055 454.93 319.869 454.995 319.626 455.042C319.393 455.098 319.164 455.126 318.94 455.126ZM321.003 446.544V445.172H322.529V446.544H321.003ZM321.129 455V448.182H322.403V455H321.129ZM324.48 455V448.182H325.726V449.666H325.572C325.693 449.321 325.861 449.031 326.076 448.798C326.29 448.555 326.547 448.373 326.846 448.252C327.154 448.121 327.49 448.056 327.854 448.056C328.432 448.056 328.899 448.196 329.254 448.476C329.608 448.747 329.846 449.162 329.968 449.722H329.772C329.94 449.209 330.238 448.803 330.668 448.504C331.106 448.205 331.615 448.056 332.194 448.056C332.707 448.056 333.127 448.159 333.454 448.364C333.79 448.56 334.042 448.859 334.21 449.26C334.378 449.652 334.462 450.156 334.462 450.772V455H333.188V450.828C333.188 450.231 333.085 449.792 332.88 449.512C332.674 449.232 332.329 449.092 331.844 449.092C331.489 449.092 331.181 449.176 330.92 449.344C330.658 449.512 330.458 449.75 330.318 450.058C330.178 450.366 330.108 450.735 330.108 451.164V455H328.834V450.828C328.834 450.231 328.731 449.792 328.526 449.512C328.32 449.232 327.975 449.092 327.49 449.092C327.135 449.092 326.827 449.176 326.566 449.344C326.304 449.512 326.104 449.75 325.964 450.058C325.824 450.366 325.754 450.735 325.754 451.164V455H324.48ZM339.338 455.126C338.508 455.126 337.887 454.911 337.476 454.482C337.066 454.043 336.86 453.418 336.86 452.606V449.162H335.53V448.182H336.86V446.11H338.134V448.182H340.276V449.162H338.134V452.494C338.134 453.007 338.242 453.395 338.456 453.656C338.671 453.917 339.026 454.048 339.52 454.048C339.67 454.048 339.814 454.034 339.954 454.006C340.104 453.969 340.244 453.931 340.374 453.894L340.584 454.846C340.454 454.93 340.267 454.995 340.024 455.042C339.791 455.098 339.562 455.126 339.338 455.126ZM343.964 455.126C343.413 455.126 342.951 455.023 342.578 454.818C342.214 454.613 341.943 454.309 341.766 453.908C341.589 453.507 341.5 453.003 341.5 452.396V448.182H342.774V452.396C342.774 452.779 342.825 453.096 342.928 453.348C343.031 453.6 343.189 453.787 343.404 453.908C343.628 454.029 343.908 454.09 344.244 454.09C344.617 454.09 344.944 454.006 345.224 453.838C345.504 453.67 345.723 453.432 345.882 453.124C346.041 452.816 346.12 452.457 346.12 452.046V448.182H347.394V455H346.148V453.46H346.33C346.143 454.001 345.84 454.417 345.42 454.706C345.009 454.986 344.524 455.126 343.964 455.126ZM349.374 446.544V445.172H350.886V446.544H349.374ZM347.736 457.702L347.638 456.736L348.254 456.68C348.665 456.633 348.973 456.489 349.178 456.246C349.393 456.003 349.5 455.649 349.5 455.182V448.182H350.774V455.042C350.774 455.462 350.723 455.826 350.62 456.134C350.527 456.451 350.382 456.717 350.186 456.932C349.99 457.147 349.738 457.315 349.43 457.436C349.122 457.557 348.758 457.632 348.338 457.66L347.736 457.702ZM355.257 455.126C354.706 455.126 354.244 455.023 353.871 454.818C353.507 454.613 353.236 454.309 353.059 453.908C352.881 453.507 352.793 453.003 352.793 452.396V448.182H354.067V452.396C354.067 452.779 354.118 453.096 354.221 453.348C354.323 453.6 354.482 453.787 354.697 453.908C354.921 454.029 355.201 454.09 355.537 454.09C355.91 454.09 356.237 454.006 356.517 453.838C356.797 453.67 357.016 453.432 357.175 453.124C357.333 452.816 357.413 452.457 357.413 452.046V448.182H358.687V455H357.441V453.46H357.623C357.436 454.001 357.133 454.417 356.713 454.706C356.302 454.986 355.817 455.126 355.257 455.126ZM360.737 455V445.13H362.011V449.666H361.829C362.025 449.134 362.342 448.733 362.781 448.462C363.229 448.191 363.738 448.056 364.307 448.056C364.858 448.056 365.31 448.159 365.665 448.364C366.02 448.56 366.286 448.859 366.463 449.26C366.64 449.661 366.729 450.165 366.729 450.772V455H365.455V450.842C365.455 450.441 365.404 450.109 365.301 449.848C365.198 449.587 365.035 449.395 364.811 449.274C364.596 449.153 364.321 449.092 363.985 449.092C363.593 449.092 363.248 449.176 362.949 449.344C362.65 449.512 362.417 449.75 362.249 450.058C362.09 450.366 362.011 450.725 362.011 451.136V455H360.737ZM376.487 455.126C375.181 455.126 374.187 454.781 373.505 454.09C372.824 453.399 372.483 452.387 372.483 451.052V445.13H373.785V451.01C373.785 452.009 374.014 452.755 374.471 453.25C374.929 453.735 375.601 453.978 376.487 453.978C377.374 453.978 378.046 453.735 378.503 453.25C378.961 452.755 379.189 452.009 379.189 451.01V445.13H380.477V451.052C380.477 452.387 380.137 453.399 379.455 454.09C378.783 454.781 377.794 455.126 376.487 455.126ZM382.794 455V445.13H383.788L389.934 453.278H389.584V445.13H390.802V455H389.822L383.676 446.838H383.998V455H382.794ZM393.17 455V445.13H399.47V446.194H394.43V449.456H399.176V450.52H394.43V453.936H399.47V455H393.17ZM400.21 455.112L400.112 454.02L400.994 453.964C401.302 453.945 401.559 453.871 401.764 453.74C401.969 453.6 402.128 453.413 402.24 453.18C402.352 452.937 402.408 452.657 402.408 452.34V445.13H403.696V452.34C403.696 452.891 403.603 453.362 403.416 453.754C403.229 454.146 402.945 454.449 402.562 454.664C402.189 454.879 401.727 455.009 401.176 455.056L400.21 455.112Z" fill="#025F96"/>
<defs>
<filter id="filter0_d_374_3750" x="0" y="0" width="488.682" height="369.871" filterUnits="userSpaceOnUse" color-interpolation-filters="sRGB">
<feFlood flood-opacity="0" result="BackgroundImageFix"/>
<feColorMatrix in="SourceAlpha" type="matrix" values="0 0 0 0 0 0 0 0 0 0 0 0 0 0 0 0 0 0 127 0" result="hardAlpha"/>
<feOffset dy="8"/>
<feGaussianBlur stdDeviation="2"/>
<feComposite in2="hardAlpha" operator="out"/>
<feColorMatrix type="matrix" values="0 0 0 0 0 0 0 0 0 0 0 0 0 0 0 0 0 0 0.25 0"/>
<feBlend mode="normal" in2="BackgroundImageFix" result="effect1_dropShadow_374_3750"/>
<feBlend mode="normal" in="SourceGraphic" in2="effect1_dropShadow_374_3750" result="shape"/>
</filter>
<filter id="filter1_d_374_3750" x="202.556" y="38.9637" width="59.6707" height="84.8746" filterUnits="userSpaceOnUse" color-interpolation-filters="sRGB">
<feFlood flood-opacity="0" result="BackgroundImageFix"/>
<feColorMatrix in="SourceAlpha" type="matrix" values="0 0 0 0 0 0 0 0 0 0 0 0 0 0 0 0 0 0 127 0" result="hardAlpha"/>
<feOffset dy="4"/>
<feGaussianBlur stdDeviation="2"/>
<feComposite in2="hardAlpha" operator="out"/>
<feColorMatrix type="matrix" values="0 0 0 0 0 0 0 0 0 0 0 0 0 0 0 0 0 0 0.1 0"/>
<feBlend mode="normal" in2="BackgroundImageFix" result="effect1_dropShadow_374_3750"/>
<feBlend mode="normal" in="SourceGraphic" in2="effect1_dropShadow_374_3750" result="shape"/>
</filter>
<linearGradient id="paint0_linear_374_3750" x1="319.769" y1="87.4863" x2="296.701" y2="193.113" gradientUnits="userSpaceOnUse">
<stop offset="0.0657633" stop-color="#4D9428"/>
<stop offset="0.82682" stop-color="#438222"/>
</linearGradient>
<linearGradient id="paint1_linear_374_3750" x1="168.928" y1="87.4863" x2="191.996" y2="193.113" gradientUnits="userSpaceOnUse">
<stop offset="0.0657633" stop-color="#4D9428"/>
<stop offset="0.82682" stop-color="#438222"/>
</linearGradient>
<linearGradient id="paint2_linear_374_3750" x1="238.607" y1="69.3276" x2="238.607" y2="-0.877571" gradientUnits="userSpaceOnUse">
<stop stop-color="#446433"/>
<stop offset="0.750949" stop-color="#74E03C"/>
</linearGradient>
<linearGradient id="paint3_linear_374_3750" x1="196.843" y1="39.1221" x2="196.843" y2="77.2255" gradientUnits="userSpaceOnUse">
<stop offset="0.397531" stop-color="#8BFF4D"/>
<stop offset="1" stop-color="#446433"/>
</linearGradient>
</defs>
</svg>
